# xmcd CD database file
#
# Track frame offsets:
#	150
#	20078
#	38333
#
# Disc length: 809 seconds
#
# Revision: 0
# Processed by: cddbd v1.5.1PL0 Copyright (c) Steve Scherf et al.
# Submitted via: CDex 1.50
#
DISCID=18032703
DTITLE=永井ルイ - BigSky
DYEAR=2004
DGENRE=Rock and Roll
TTITLE0=キッチンパラダイス
TTITLE1=MidnightSun
TTITLE2=BigSky
EXTD=YEAR: 2004
EXTT0=
EXTT1=
EXTT2=
PLAYORDER=
